<svg xmlns="http://www.w3.org/2000/svg" xmlns:xlink="http://www.w3.org/1999/xlink" width="1640" zoomAndPan="magnify" viewBox="0 0 1230 693.000001" height="924" preserveAspectRatio="xMidYMid meet" version="1.0"><defs><g/><clipPath id="15787f99f1"><path d="M 0.886719 0 L 1229.113281 0 L 1229.113281 692 L 0.886719 692 Z M 0.886719 0 " clip-rule="nonzero"/></clipPath><clipPath id="845d42cc2b"><path d="M 1100 492 L 1105 492 L 1105 497 L 1100 497 Z M 1100 492 " clip-rule="nonzero"/></clipPath><clipPath id="729bd4b0a7"><path d="M 1102.625 487.167969 L 1134.664062 604.1875 L 1017.644531 636.226562 L 985.605469 519.207031 Z M 1102.625 487.167969 " clip-rule="nonzero"/></clipPath><clipPath id="d13ff84c78"><path d="M 1089.171875 438.035156 L 1134.660156 604.171875 L 968.519531 649.65625 L 923.035156 483.519531 Z M 1089.171875 438.035156 " clip-rule="nonzero"/></clipPath><clipPath id="84647de064"><path d="M 1108 519 L 1112 519 L 1112 524 L 1108 524 Z M 1108 519 " clip-rule="nonzero"/></clipPath><clipPath id="0ef711ea34"><path d="M 1102.625 487.167969 L 1134.664062 604.1875 L 1017.644531 636.226562 L 985.605469 519.207031 Z M 1102.625 487.167969 " clip-rule="nonzero"/></clipPath><clipPath id="a8be9b4343"><path d="M 1089.171875 438.035156 L 1134.660156 604.171875 L 968.519531 649.65625 L 923.035156 483.519531 Z M 1089.171875 438.035156 " clip-rule="nonzero"/></clipPath><clipPath id="34772f61e2"><path d="M 1115 546 L 1120 546 L 1120 551 L 1115 551 Z M 1115 546 " clip-rule="nonzero"/></clipPath><clipPath id="66a6490b7e"><path d="M 1102.625 487.167969 L 1134.664062 604.1875 L 1017.644531 636.226562 L 985.605469 519.207031 Z M 1102.625 487.167969 " clip-rule="nonzero"/></clipPath><clipPath id="6089e7c4f8"><path d="M 1089.171875 438.035156 L 1134.660156 604.171875 L 968.519531 649.65625 L 923.035156 483.519531 Z M 1089.171875 438.035156 " clip-rule="nonzero"/></clipPath><clipPath id="baa5f0d978"><path d="M 1123 573 L 1127 573 L 1127 578 L 1123 578 Z M 1123 573 " clip-rule="nonzero"/></clipPath><clipPath id="47e7ffa7eb"><path d="M 1102.625 487.167969 L 1134.664062 604.1875 L 1017.644531 636.226562 L 985.605469 519.207031 Z M 1102.625 487.167969 " clip-rule="nonzero"/></clipPath><clipPath id="56c0f32b7d"><path d="M 1089.171875 438.035156 L 1134.660156 604.171875 L 968.519531 649.65625 L 923.035156 483.519531 Z M 1089.171875 438.035156 " clip-rule="nonzero"/></clipPath><clipPath id="df3e9553d5"><path d="M 1130 601 L 1135 601 L 1135 605 L 1130 605 Z M 1130 601 " clip-rule="nonzero"/></clipPath><clipPath id="630a594ae6"><path d="M 1102.625 487.167969 L 1134.664062 604.1875 L 1017.644531 636.226562 L 985.605469 519.207031 Z M 1102.625 487.167969 " clip-rule="nonzero"/></clipPath><clipPath id="40b1f02fbd"><path d="M 1089.171875 438.035156 L 1134.660156 604.171875 L 968.519531 649.65625 L 923.035156 483.519531 Z M 1089.171875 438.035156 " clip-rule="nonzero"/></clipPath><clipPath id="e3323dc302"><path d="M 1073 500 L 1078 500 L 1078 504 L 1073 504 Z M 1073 500 " clip-rule="nonzero"/></clipPath><clipPath id="552f7313b0"><path d="M 1102.625 487.167969 L 1134.664062 604.1875 L 1017.644531 636.226562 L 985.605469 519.207031 Z M 1102.625 487.167969 " clip-rule="nonzero"/></clipPath><clipPath id="90fdc687ab"><path d="M 1089.171875 438.035156 L 1134.660156 604.171875 L 968.519531 649.65625 L 923.035156 483.519531 Z M 1089.171875 438.035156 " clip-rule="nonzero"/></clipPath><clipPath id="5f7ca13bd9"><path d="M 1081 527 L 1085 527 L 1085 531 L 1081 531 Z M 1081 527 " clip-rule="nonzero"/></clipPath><clipPath id="925febd841"><path d="M 1102.625 487.167969 L 1134.664062 604.1875 L 1017.644531 636.226562 L 985.605469 519.207031 Z M 1102.625 487.167969 " clip-rule="nonzero"/></clipPath><clipPath id="38f03ad726"><path d="M 1089.171875 438.035156 L 1134.660156 604.171875 L 968.519531 649.65625 L 923.035156 483.519531 Z M 1089.171875 438.035156 " clip-rule="nonzero"/></clipPath><clipPath id="92d1fb3370"><path d="M 1088 554 L 1093 554 L 1093 558 L 1088 558 Z M 1088 554 " clip-rule="nonzero"/></clipPath><clipPath id="73454b24a4"><path d="M 1102.625 487.167969 L 1134.664062 604.1875 L 1017.644531 636.226562 L 985.605469 519.207031 Z M 1102.625 487.167969 " clip-rule="nonzero"/></clipPath><clipPath id="6798794a23"><path d="M 1089.171875 438.035156 L 1134.660156 604.171875 L 968.519531 649.65625 L 923.035156 483.519531 Z M 1089.171875 438.035156 " clip-rule="nonzero"/></clipPath><clipPath id="aa0764b69a"><path d="M 1096 581 L 1100 581 L 1100 586 L 1096 586 Z M 1096 581 " clip-rule="nonzero"/></clipPath><clipPath id="23975d6838"><path d="M 1102.625 487.167969 L 1134.664062 604.1875 L 1017.644531 636.226562 L 985.605469 519.207031 Z M 1102.625 487.167969 " clip-rule="nonzero"/></clipPath><clipPath id="7cebecc94b"><path d="M 1089.171875 438.035156 L 1134.660156 604.171875 L 968.519531 649.65625 L 923.035156 483.519531 Z M 1089.171875 438.035156 " clip-rule="nonzero"/></clipPath><clipPath id="e2d607a0ec"><path d="M 1103 608 L 1108 608 L 1108 613 L 1103 613 Z M 1103 608 " clip-rule="nonzero"/></clipPath><clipPath id="30a85064a2"><path d="M 1102.625 487.167969 L 1134.664062 604.1875 L 1017.644531 636.226562 L 985.605469 519.207031 Z M 1102.625 487.167969 " clip-rule="nonzero"/></clipPath><clipPath id="26621dc67d"><path d="M 1089.171875 438.035156 L 1134.660156 604.171875 L 968.519531 649.65625 L 923.035156 483.519531 Z M 1089.171875 438.035156 " clip-rule="nonzero"/></clipPath><clipPath id="9648b4838c"><path d="M 1046 507 L 1051 507 L 1051 512 L 1046 512 Z M 1046 507 " clip-rule="nonzero"/></clipPath><clipPath id="180d63ddda"><path d="M 1102.625 487.167969 L 1134.664062 604.1875 L 1017.644531 636.226562 L 985.605469 519.207031 Z M 1102.625 487.167969 " clip-rule="nonzero"/></clipPath><clipPath id="08f896effb"><path d="M 1089.171875 438.035156 L 1134.660156 604.171875 L 968.519531 649.65625 L 923.035156 483.519531 Z M 1089.171875 438.035156 " clip-rule="nonzero"/></clipPath><clipPath id="f763ab7919"><path d="M 1054 534 L 1058 534 L 1058 539 L 1054 539 Z M 1054 534 " clip-rule="nonzero"/></clipPath><clipPath id="064a03dbc1"><path d="M 1102.625 487.167969 L 1134.664062 604.1875 L 1017.644531 636.226562 L 985.605469 519.207031 Z M 1102.625 487.167969 " clip-rule="nonzero"/></clipPath><clipPath id="d09a62633e"><path d="M 1089.171875 438.035156 L 1134.660156 604.171875 L 968.519531 649.65625 L 923.035156 483.519531 Z M 1089.171875 438.035156 " clip-rule="nonzero"/></clipPath><clipPath id="2b6be71e73"><path d="M 1061 561 L 1066 561 L 1066 566 L 1061 566 Z M 1061 561 " clip-rule="nonzero"/></clipPath><clipPath id="1a4701f3e1"><path d="M 1102.625 487.167969 L 1134.664062 604.1875 L 1017.644531 636.226562 L 985.605469 519.207031 Z M 1102.625 487.167969 " clip-rule="nonzero"/></clipPath><clipPath id="f65178045b"><path d="M 1089.171875 438.035156 L 1134.660156 604.171875 L 968.519531 649.65625 L 923.035156 483.519531 Z M 1089.171875 438.035156 " clip-rule="nonzero"/></clipPath><clipPath id="d86c3a3df5"><path d="M 1068 588 L 1073 588 L 1073 593 L 1068 593 Z M 1068 588 " clip-rule="nonzero"/></clipPath><clipPath id="a0bc534b75"><path d="M 1102.625 487.167969 L 1134.664062 604.1875 L 1017.644531 636.226562 L 985.605469 519.207031 Z M 1102.625 487.167969 " clip-rule="nonzero"/></clipPath><clipPath id="586ce699f9"><path d="M 1089.171875 438.035156 L 1134.660156 604.171875 L 968.519531 649.65625 L 923.035156 483.519531 Z M 1089.171875 438.035156 " clip-rule="nonzero"/></clipPath><clipPath id="a7b163f40c"><path d="M 1076 615 L 1081 615 L 1081 620 L 1076 620 Z M 1076 615 " clip-rule="nonzero"/></clipPath><clipPath id="f4d8f29e68"><path d="M 1102.625 487.167969 L 1134.664062 604.1875 L 1017.644531 636.226562 L 985.605469 519.207031 Z M 1102.625 487.167969 " clip-rule="nonzero"/></clipPath><clipPath id="fc3e4bea70"><path d="M 1089.171875 438.035156 L 1134.660156 604.171875 L 968.519531 649.65625 L 923.035156 483.519531 Z M 1089.171875 438.035156 " clip-rule="nonzero"/></clipPath><clipPath id="825133dfd4"><path d="M 1019 514 L 1024 514 L 1024 519 L 1019 519 Z M 1019 514 " clip-rule="nonzero"/></clipPath><clipPath id="5b00c74904"><path d="M 1102.625 487.167969 L 1134.664062 604.1875 L 1017.644531 636.226562 L 985.605469 519.207031 Z M 1102.625 487.167969 " clip-rule="nonzero"/></clipPath><clipPath id="fd9152cdcb"><path d="M 1089.171875 438.035156 L 1134.660156 604.171875 L 968.519531 649.65625 L 923.035156 483.519531 Z M 1089.171875 438.035156 " clip-rule="nonzero"/></clipPath><clipPath id="813ce91a23"><path d="M 1027 542 L 1031 542 L 1031 546 L 1027 546 Z M 1027 542 " clip-rule="nonzero"/></clipPath><clipPath id="d97f23dfc0"><path d="M 1102.625 487.167969 L 1134.664062 604.1875 L 1017.644531 636.226562 L 985.605469 519.207031 Z M 1102.625 487.167969 " clip-rule="nonzero"/></clipPath><clipPath id="45410e43f3"><path d="M 1089.171875 438.035156 L 1134.660156 604.171875 L 968.519531 649.65625 L 923.035156 483.519531 Z M 1089.171875 438.035156 " clip-rule="nonzero"/></clipPath><clipPath id="f74f4e4627"><path d="M 1034 569 L 1039 569 L 1039 573 L 1034 573 Z M 1034 569 " clip-rule="nonzero"/></clipPath><clipPath id="baf8858b8f"><path d="M 1102.625 487.167969 L 1134.664062 604.1875 L 1017.644531 636.226562 L 985.605469 519.207031 Z M 1102.625 487.167969 " clip-rule="nonzero"/></clipPath><clipPath id="77c4457692"><path d="M 1089.171875 438.035156 L 1134.660156 604.171875 L 968.519531 649.65625 L 923.035156 483.519531 Z M 1089.171875 438.035156 " clip-rule="nonzero"/></clipPath><clipPath id="8f15e8833f"><path d="M 1041 596 L 1046 596 L 1046 600 L 1041 600 Z M 1041 596 " clip-rule="nonzero"/></clipPath><clipPath id="a9ff5ffa34"><path d="M 1102.625 487.167969 L 1134.664062 604.1875 L 1017.644531 636.226562 L 985.605469 519.207031 Z M 1102.625 487.167969 " clip-rule="nonzero"/></clipPath><clipPath id="0fc6ea0441"><path d="M 1089.171875 438.035156 L 1134.660156 604.171875 L 968.519531 649.65625 L 923.035156 483.519531 Z M 1089.171875 438.035156 " clip-rule="nonzero"/></clipPath><clipPath id="8558553a2f"><path d="M 1049 623 L 1053 623 L 1053 627 L 1049 627 Z M 1049 623 " clip-rule="nonzero"/></clipPath><clipPath id="ba793a4afc"><path d="M 1102.625 487.167969 L 1134.664062 604.1875 L 1017.644531 636.226562 L 985.605469 519.207031 Z M 1102.625 487.167969 " clip-rule="nonzero"/></clipPath><clipPath id="430fa1751b"><path d="M 1089.171875 438.035156 L 1134.660156 604.171875 L 968.519531 649.65625 L 923.035156 483.519531 Z M 1089.171875 438.035156 " clip-rule="nonzero"/></clipPath><clipPath id="75207ed43e"><path d="M 992 522 L 997 522 L 997 527 L 992 527 Z M 992 522 " clip-rule="nonzero"/></clipPath><clipPath id="ef7f045116"><path d="M 1102.625 487.167969 L 1134.664062 604.1875 L 1017.644531 636.226562 L 985.605469 519.207031 Z M 1102.625 487.167969 " clip-rule="nonzero"/></clipPath><clipPath id="fffc401c75"><path d="M 1089.171875 438.035156 L 1134.660156 604.171875 L 968.519531 649.65625 L 923.035156 483.519531 Z M 1089.171875 438.035156 " clip-rule="nonzero"/></clipPath><clipPath id="10a0568913"><path d="M 999 549 L 1004 549 L 1004 554 L 999 554 Z M 999 549 " clip-rule="nonzero"/></clipPath><clipPath id="6153a1cc8e"><path d="M 1102.625 487.167969 L 1134.664062 604.1875 L 1017.644531 636.226562 L 985.605469 519.207031 Z M 1102.625 487.167969 " clip-rule="nonzero"/></clipPath><clipPath id="8e5a746ce7"><path d="M 1089.171875 438.035156 L 1134.660156 604.171875 L 968.519531 649.65625 L 923.035156 483.519531 Z M 1089.171875 438.035156 " clip-rule="nonzero"/></clipPath><clipPath id="6b107a7228"><path d="M 1007 576 L 1012 576 L 1012 581 L 1007 581 Z M 1007 576 " clip-rule="nonzero"/></clipPath><clipPath id="2469b14830"><path d="M 1102.625 487.167969 L 1134.664062 604.1875 L 1017.644531 636.226562 L 985.605469 519.207031 Z M 1102.625 487.167969 " clip-rule="nonzero"/></clipPath><clipPath id="1bcab5e829"><path d="M 1089.171875 438.035156 L 1134.660156 604.171875 L 968.519531 649.65625 L 923.035156 483.519531 Z M 1089.171875 438.035156 " clip-rule="nonzero"/></clipPath><clipPath id="4b8f43bade"><path d="M 1014 603 L 1019 603 L 1019 608 L 1014 608 Z M 1014 603 " clip-rule="nonzero"/></clipPath><clipPath id="fb9fa58bc6"><path d="M 1102.625 487.167969 L 1134.664062 604.1875 L 1017.644531 636.226562 L 985.605469 519.207031 Z M 1102.625 487.167969 " clip-rule="nonzero"/></clipPath><clipPath id="4161993f2c"><path d="M 1089.171875 438.035156 L 1134.660156 604.171875 L 968.519531 649.65625 L 923.035156 483.519531 Z M 1089.171875 438.035156 " clip-rule="nonzero"/></clipPath><clipPath id="652439d38c"><path d="M 1022 630 L 1026 630 L 1026 635 L 1022 635 Z M 1022 630 " clip-rule="nonzero"/></clipPath><clipPath id="c17f1ae082"><path d="M 1102.625 487.167969 L 1134.664062 604.1875 L 1017.644531 636.226562 L 985.605469 519.207031 Z M 1102.625 487.167969 " clip-rule="nonzero"/></clipPath><clipPath id="b943aeddcc"><path d="M 1089.171875 438.035156 L 1134.660156 604.171875 L 968.519531 649.65625 L 923.035156 483.519531 Z M 1089.171875 438.035156 " clip-rule="nonzero"/></clipPath><clipPath id="b5ff2ebf0b"><path d="M 173 151 L 178 151 L 178 156 L 173 156 Z M 173 151 " clip-rule="nonzero"/></clipPath><clipPath id="28d090b17f"><path d="M 169.582031 157.246094 L 253.046875 69.191406 L 341.101562 152.65625 L 257.632812 240.710938 Z M 169.582031 157.246094 " clip-rule="nonzero"/></clipPath><clipPath id="2dfd09ebb1"><path d="M 134.535156 194.21875 L 253.035156 69.203125 L 378.050781 187.703125 L 259.550781 312.71875 Z M 134.535156 194.21875 " clip-rule="nonzero"/></clipPath><clipPath id="1d98e0f541"><path d="M 193 131 L 197 131 L 197 135 L 193 135 Z M 193 131 " clip-rule="nonzero"/></clipPath><clipPath id="9f1698074b"><path d="M 169.582031 157.246094 L 253.046875 69.191406 L 341.101562 152.65625 L 257.632812 240.710938 Z M 169.582031 157.246094 " clip-rule="nonzero"/></clipPath><clipPath id="0adeebb026"><path d="M 134.535156 194.21875 L 253.035156 69.203125 L 378.050781 187.703125 L 259.550781 312.71875 Z M 134.535156 194.21875 " clip-rule="nonzero"/></clipPath><clipPath id="300452d0de"><path d="M 212 110 L 217 110 L 217 115 L 212 115 Z M 212 110 " clip-rule="nonzero"/></clipPath><clipPath id="7696deafa4"><path d="M 169.582031 157.246094 L 253.046875 69.191406 L 341.101562 152.65625 L 257.632812 240.710938 Z M 169.582031 157.246094 " clip-rule="nonzero"/></clipPath><clipPath id="495c2009e1"><path d="M 134.535156 194.21875 L 253.035156 69.203125 L 378.050781 187.703125 L 259.550781 312.71875 Z M 134.535156 194.21875 " clip-rule="nonzero"/></clipPath><clipPath id="6373dbe27e"><path d="M 231 90 L 236 90 L 236 95 L 231 95 Z M 231 90 " clip-rule="nonzero"/></clipPath><clipPath id="e8bbd84978"><path d="M 169.582031 157.246094 L 253.046875 69.191406 L 341.101562 152.65625 L 257.632812 240.710938 Z M 169.582031 157.246094 " clip-rule="nonzero"/></clipPath><clipPath id="db55deb67d"><path d="M 134.535156 194.21875 L 253.035156 69.203125 L 378.050781 187.703125 L 259.550781 312.71875 Z M 134.535156 194.21875 " clip-rule="nonzero"/></clipPath><clipPath id="36c43384f1"><path d="M 251 70 L 255 70 L 255 74 L 251 74 Z M 251 70 " clip-rule="nonzero"/></clipPath><clipPath id="e68fc79ef3"><path d="M 169.582031 157.246094 L 253.046875 69.191406 L 341.101562 152.65625 L 257.632812 240.710938 Z M 169.582031 157.246094 " clip-rule="nonzero"/></clipPath><clipPath id="72b10b5ba6"><path d="M 134.535156 194.21875 L 253.035156 69.203125 L 378.050781 187.703125 L 259.550781 312.71875 Z M 134.535156 194.21875 " clip-rule="nonzero"/></clipPath><clipPath id="a7eb2be787"><path d="M 194 170 L 199 170 L 199 175 L 194 175 Z M 194 170 " clip-rule="nonzero"/></clipPath><clipPath id="8052c2dad6"><path d="M 169.582031 157.246094 L 253.046875 69.191406 L 341.101562 152.65625 L 257.632812 240.710938 Z M 169.582031 157.246094 " clip-rule="nonzero"/></clipPath><clipPath id="75e77a2441"><path d="M 134.535156 194.21875 L 253.035156 69.203125 L 378.050781 187.703125 L 259.550781 312.71875 Z M 134.535156 194.21875 " clip-rule="nonzero"/></clipPath><clipPath id="4fe82fc917"><path d="M 213 150 L 218 150 L 218 155 L 213 155 Z M 213 150 " clip-rule="nonzero"/></clipPath><clipPath id="b06b5efc14"><path d="M 169.582031 157.246094 L 253.046875 69.191406 L 341.101562 152.65625 L 257.632812 240.710938 Z M 169.582031 157.246094 " clip-rule="nonzero"/></clipPath><clipPath id="5d9e951660"><path d="M 134.535156 194.21875 L 253.035156 69.203125 L 378.050781 187.703125 L 259.550781 312.71875 Z M 134.535156 194.21875 " clip-rule="nonzero"/></clipPath><clipPath id="a23e94dc0b"><path d="M 233 130 L 237 130 L 237 134 L 233 134 Z M 233 130 " clip-rule="nonzero"/></clipPath><clipPath id="4194e7e382"><path d="M 169.582031 157.246094 L 253.046875 69.191406 L 341.101562 152.65625 L 257.632812 240.710938 Z M 169.582031 157.246094 " clip-rule="nonzero"/></clipPath><clipPath id="85e8bfd007"><path d="M 134.535156 194.21875 L 253.035156 69.203125 L 378.050781 187.703125 L 259.550781 312.71875 Z M 134.535156 194.21875 " clip-rule="nonzero"/></clipPath><clipPath id="dd48b34f29"><path d="M 252 109 L 256 109 L 256 114 L 252 114 Z M 252 109 " clip-rule="nonzero"/></clipPath><clipPath id="4495e53037"><path d="M 169.582031 157.246094 L 253.046875 69.191406 L 341.101562 152.65625 L 257.632812 240.710938 Z M 169.582031 157.246094 " clip-rule="nonzero"/></clipPath><clipPath id="909d6c5c82"><path d="M 134.535156 194.21875 L 253.035156 69.203125 L 378.050781 187.703125 L 259.550781 312.71875 Z M 134.535156 194.21875 " clip-rule="nonzero"/></clipPath><clipPath id="a47f91e489"><path d="M 271 89 L 276 89 L 276 93 L 271 93 Z M 271 89 " clip-rule="nonzero"/></clipPath><clipPath id="9cad01fb10"><path d="M 169.582031 157.246094 L 253.046875 69.191406 L 341.101562 152.65625 L 257.632812 240.710938 Z M 169.582031 157.246094 " clip-rule="nonzero"/></clipPath><clipPath id="446e439154"><path d="M 134.535156 194.21875 L 253.035156 69.203125 L 378.050781 187.703125 L 259.550781 312.71875 Z M 134.535156 194.21875 " clip-rule="nonzero"/></clipPath><clipPath id="4f2eeda8ed"><path d="M 214 190 L 219 190 L 219 194 L 214 194 Z M 214 190 " clip-rule="nonzero"/></clipPath><clipPath id="8e713b349e"><path d="M 169.582031 157.246094 L 253.046875 69.191406 L 341.101562 152.65625 L 257.632812 240.710938 Z M 169.582031 157.246094 " clip-rule="nonzero"/></clipPath><clipPath id="bcaff1f328"><path d="M 134.535156 194.21875 L 253.035156 69.203125 L 378.050781 187.703125 L 259.550781 312.71875 Z M 134.535156 194.21875 " clip-rule="nonzero"/></clipPath><clipPath id="d74a33b139"><path d="M 234 169 L 238 169 L 238 174 L 234 174 Z M 234 169 " clip-rule="nonzero"/></clipPath><clipPath id="4f7cb36046"><path d="M 169.582031 157.246094 L 253.046875 69.191406 L 341.101562 152.65625 L 257.632812 240.710938 Z M 169.582031 157.246094 " clip-rule="nonzero"/></clipPath><clipPath id="a62223c6ef"><path d="M 134.535156 194.21875 L 253.035156 69.203125 L 378.050781 187.703125 L 259.550781 312.71875 Z M 134.535156 194.21875 " clip-rule="nonzero"/></clipPath><clipPath id="0ffe478f8e"><path d="M 253 149 L 258 149 L 258 154 L 253 154 Z M 253 149 " clip-rule="nonzero"/></clipPath><clipPath id="287d25f293"><path d="M 169.582031 157.246094 L 253.046875 69.191406 L 341.101562 152.65625 L 257.632812 240.710938 Z M 169.582031 157.246094 " clip-rule="nonzero"/></clipPath><clipPath id="bc2456c38b"><path d="M 134.535156 194.21875 L 253.035156 69.203125 L 378.050781 187.703125 L 259.550781 312.71875 Z M 134.535156 194.21875 " clip-rule="nonzero"/></clipPath><clipPath id="0feb4e7879"><path d="M 272 129 L 277 129 L 277 133 L 272 133 Z M 272 129 " clip-rule="nonzero"/></clipPath><clipPath id="1f85c34063"><path d="M 169.582031 157.246094 L 253.046875 69.191406 L 341.101562 152.65625 L 257.632812 240.710938 Z M 169.582031 157.246094 " clip-rule="nonzero"/></clipPath><clipPath id="09cd39b027"><path d="M 134.535156 194.21875 L 253.035156 69.203125 L 378.050781 187.703125 L 259.550781 312.71875 Z M 134.535156 194.21875 " clip-rule="nonzero"/></clipPath><clipPath id="b098a80f4b"><path d="M 292 108 L 296 108 L 296 113 L 292 113 Z M 292 108 " clip-rule="nonzero"/></clipPath><clipPath id="e4268e0428"><path d="M 169.582031 157.246094 L 253.046875 69.191406 L 341.101562 152.65625 L 257.632812 240.710938 Z M 169.582031 157.246094 " clip-rule="nonzero"/></clipPath><clipPath id="e6d20e8ee0"><path d="M 134.535156 194.21875 L 253.035156 69.203125 L 378.050781 187.703125 L 259.550781 312.71875 Z M 134.535156 194.21875 " clip-rule="nonzero"/></clipPath><clipPath id="b3da46344c"><path d="M 235 209 L 239 209 L 239 214 L 235 214 Z M 235 209 " clip-rule="nonzero"/></clipPath><clipPath id="91ee084e9f"><path d="M 169.582031 157.246094 L 253.046875 69.191406 L 341.101562 152.65625 L 257.632812 240.710938 Z M 169.582031 157.246094 " clip-rule="nonzero"/></clipPath><clipPath id="149d5f7dee"><path d="M 134.535156 194.21875 L 253.035156 69.203125 L 378.050781 187.703125 L 259.550781 312.71875 Z M 134.535156 194.21875 " clip-rule="nonzero"/></clipPath><clipPath id="ab843603ce"><path d="M 254 189 L 259 189 L 259 193 L 254 193 Z M 254 189 " clip-rule="nonzero"/></clipPath><clipPath id="c30a4cc99d"><path d="M 169.582031 157.246094 L 253.046875 69.191406 L 341.101562 152.65625 L 257.632812 240.710938 Z M 169.582031 157.246094 " clip-rule="nonzero"/></clipPath><clipPath id="d279f5b068"><path d="M 134.535156 194.21875 L 253.035156 69.203125 L 378.050781 187.703125 L 259.550781 312.71875 Z M 134.535156 194.21875 " clip-rule="nonzero"/></clipPath><clipPath id="5dba195691"><path d="M 273 168 L 278 168 L 278 173 L 273 173 Z M 273 168 " clip-rule="nonzero"/></clipPath><clipPath id="0f6edbd755"><path d="M 169.582031 157.246094 L 253.046875 69.191406 L 341.101562 152.65625 L 257.632812 240.710938 Z M 169.582031 157.246094 " clip-rule="nonzero"/></clipPath><clipPath id="45a8846c1f"><path d="M 134.535156 194.21875 L 253.035156 69.203125 L 378.050781 187.703125 L 259.550781 312.71875 Z M 134.535156 194.21875 " clip-rule="nonzero"/></clipPath><clipPath id="95057ca7b0"><path d="M 293 148 L 297 148 L 297 153 L 293 153 Z M 293 148 " clip-rule="nonzero"/></clipPath><clipPath id="72886cb041"><path d="M 169.582031 157.246094 L 253.046875 69.191406 L 341.101562 152.65625 L 257.632812 240.710938 Z M 169.582031 157.246094 " clip-rule="nonzero"/></clipPath><clipPath id="38808f890c"><path d="M 134.535156 194.21875 L 253.035156 69.203125 L 378.050781 187.703125 L 259.550781 312.71875 Z M 134.535156 194.21875 " clip-rule="nonzero"/></clipPath><clipPath id="41de38da3d"><path d="M 312 127 L 317 127 L 317 132 L 312 132 Z M 312 127 " clip-rule="nonzero"/></clipPath><clipPath id="188dbede57"><path d="M 169.582031 157.246094 L 253.046875 69.191406 L 341.101562 152.65625 L 257.632812 240.710938 Z M 169.582031 157.246094 " clip-rule="nonzero"/></clipPath><clipPath id="71d8ca392c"><path d="M 134.535156 194.21875 L 253.035156 69.203125 L 378.050781 187.703125 L 259.550781 312.71875 Z M 134.535156 194.21875 " clip-rule="nonzero"/></clipPath><clipPath id="f76dd9dfae"><path d="M 255 228 L 260 228 L 260 233 L 255 233 Z M 255 228 " clip-rule="nonzero"/></clipPath><clipPath id="78874d3af5"><path d="M 169.582031 157.246094 L 253.046875 69.191406 L 341.101562 152.65625 L 257.632812 240.710938 Z M 169.582031 157.246094 " clip-rule="nonzero"/></clipPath><clipPath id="46aadbfec9"><path d="M 134.535156 194.21875 L 253.035156 69.203125 L 378.050781 187.703125 L 259.550781 312.71875 Z M 134.535156 194.21875 " clip-rule="nonzero"/></clipPath><clipPath id="a4cff54479"><path d="M 274 208 L 279 208 L 279 213 L 274 213 Z M 274 208 " clip-rule="nonzero"/></clipPath><clipPath id="3e0196c8e2"><path d="M 169.582031 157.246094 L 253.046875 69.191406 L 341.101562 152.65625 L 257.632812 240.710938 Z M 169.582031 157.246094 " clip-rule="nonzero"/></clipPath><clipPath id="707517131d"><path d="M 134.535156 194.21875 L 253.035156 69.203125 L 378.050781 187.703125 L 259.550781 312.71875 Z M 134.535156 194.21875 " clip-rule="nonzero"/></clipPath><clipPath id="f62408e341"><path d="M 294 188 L 298 188 L 298 192 L 294 192 Z M 294 188 " clip-rule="nonzero"/></clipPath><clipPath id="1097b20d04"><path d="M 169.582031 157.246094 L 253.046875 69.191406 L 341.101562 152.65625 L 257.632812 240.710938 Z M 169.582031 157.246094 " clip-rule="nonzero"/></clipPath><clipPath id="1ffc2e7c86"><path d="M 134.535156 194.21875 L 253.035156 69.203125 L 378.050781 187.703125 L 259.550781 312.71875 Z M 134.535156 194.21875 " clip-rule="nonzero"/></clipPath><clipPath id="6abaf2d7d4"><path d="M 313 167 L 318 167 L 318 172 L 313 172 Z M 313 167 " clip-rule="nonzero"/></clipPath><clipPath id="3bc5502e15"><path d="M 169.582031 157.246094 L 253.046875 69.191406 L 341.101562 152.65625 L 257.632812 240.710938 Z M 169.582031 157.246094 " clip-rule="nonzero"/></clipPath><clipPath id="6ce8119ae1"><path d="M 134.535156 194.21875 L 253.035156 69.203125 L 378.050781 187.703125 L 259.550781 312.71875 Z M 134.535156 194.21875 " clip-rule="nonzero"/></clipPath><clipPath id="8ab299d71c"><path d="M 332 147 L 337 147 L 337 151 L 332 151 Z M 332 147 " clip-rule="nonzero"/></clipPath><clipPath id="4d8c3d4862"><path d="M 169.582031 157.246094 L 253.046875 69.191406 L 341.101562 152.65625 L 257.632812 240.710938 Z M 169.582031 157.246094 " clip-rule="nonzero"/></clipPath><clipPath id="4542afb102"><path d="M 134.535156 194.21875 L 253.035156 69.203125 L 378.050781 187.703125 L 259.550781 312.71875 Z M 134.535156 194.21875 " clip-rule="nonzero"/></clipPath><clipPath id="c2888e34bd"><path d="M 1060.140625 339.289062 L 1229.113281 339.289062 L 1229.113281 393.210938 L 1060.140625 393.210938 Z M 1060.140625 339.289062 " clip-rule="nonzero"/></clipPath><clipPath id="76c5919d36"><path d="M 0.886719 366.269531 L 191.574219 366.269531 L 191.574219 420.191406 L 0.886719 420.191406 Z M 0.886719 366.269531 " clip-rule="nonzero"/></clipPath></defs><g clip-path="url(#15787f99f1)"><path fill="#ffffff" d="M 0.886719 0 L 1229.113281 0 L 1229.113281 699.492188 L 0.886719 699.492188 Z M 0.886719 0 " fill-opacity="1" fill-rule="nonzero"/><path fill="#ffffff" d="M 0.886719 0 L 1229.113281 0 L 1229.113281 692 L 0.886719 692 Z M 0.886719 0 " fill-opacity="1" fill-rule="nonzero"/><path fill="#fcffde" d="M 0.886719 0 L 1229.113281 0 L 1229.113281 692 L 0.886719 692 Z M 0.886719 0 " fill-opacity="1" fill-rule="nonzero"/></g><g clip-path="url(#845d42cc2b)"><g clip-path="url(#729bd4b0a7)"><g clip-path="url(#d13ff84c78)"><path fill="#100f0e" d="M 1104.480469 494.023438 C 1104.214844 493.042969 1103.199219 492.480469 1102.238281 492.746094 C 1101.273438 493.007812 1100.691406 494.027344 1100.957031 494.988281 C 1101.21875 495.953125 1102.238281 496.535156 1103.203125 496.269531 C 1104.164062 496.007812 1104.746094 494.988281 1104.480469 494.023438 Z M 1104.480469 494.023438 " fill-opacity="1" fill-rule="nonzero"/></g></g></g><g clip-path="url(#84647de064)"><g clip-path="url(#0ef711ea34)"><g clip-path="url(#a8be9b4343)"><path fill="#100f0e" d="M 1111.898438 521.109375 C 1111.628906 520.125 1110.613281 519.5625 1109.652344 519.828125 C 1108.6875 520.089844 1108.085938 521.097656 1108.351562 522.078125 C 1108.621094 523.058594 1109.636719 523.621094 1110.597656 523.359375 C 1111.5625 523.09375 1112.167969 522.089844 1111.898438 521.109375 Z M 1111.898438 521.109375 " fill-opacity="1" fill-rule="nonzero"/></g></g></g><g clip-path="url(#34772f61e2)"><g clip-path="url(#66a6490b7e)"><g clip-path="url(#6089e7c4f8)"><path fill="#100f0e" d="M 1119.3125 548.191406 C 1119.042969 547.210938 1118.03125 546.648438 1117.066406 546.910156 C 1116.101562 547.175781 1115.523438 548.195312 1115.785156 549.15625 C 1116.050781 550.121094 1117.070312 550.703125 1118.03125 550.4375 C 1118.996094 550.175781 1119.582031 549.171875 1119.3125 548.191406 Z M 1119.3125 548.191406 " fill-opacity="1" fill-rule="nonzero"/></g></g></g><g clip-path="url(#baa5f0d978)"><g clip-path="url(#47e7ffa7eb)"><g clip-path="url(#56c0f32b7d)"><path fill="#100f0e" d="M 1126.730469 575.292969 C 1126.464844 574.3125 1125.449219 573.75 1124.488281 574.011719 C 1123.523438 574.277344 1122.941406 575.296875 1123.207031 576.257812 C 1123.46875 577.222656 1124.488281 577.804688 1125.453125 577.539062 C 1126.414062 577.277344 1127 576.277344 1126.730469 575.292969 Z M 1126.730469 575.292969 " fill-opacity="1" fill-rule="nonzero"/></g></g></g><g clip-path="url(#df3e9553d5)"><g clip-path="url(#630a594ae6)"><g clip-path="url(#40b1f02fbd)"><path fill="#100f0e" d="M 1134.148438 602.378906 C 1133.878906 601.394531 1132.863281 600.832031 1131.902344 601.097656 C 1130.9375 601.359375 1130.355469 602.378906 1130.621094 603.34375 C 1130.886719 604.304688 1131.902344 604.886719 1132.867188 604.625 C 1133.832031 604.359375 1134.417969 603.359375 1134.148438 602.378906 Z M 1134.148438 602.378906 " fill-opacity="1" fill-rule="nonzero"/></g></g></g><g clip-path="url(#e3323dc302)"><g clip-path="url(#552f7313b0)"><g clip-path="url(#90fdc687ab)"><path fill="#100f0e" d="M 1077.378906 501.445312 C 1077.113281 500.464844 1076.097656 499.902344 1075.132812 500.164062 C 1074.152344 500.433594 1073.589844 501.445312 1073.855469 502.410156 C 1074.117188 503.375 1075.136719 503.953125 1076.101562 503.691406 C 1077.082031 503.421875 1077.644531 502.40625 1077.378906 501.445312 Z M 1077.378906 501.445312 " fill-opacity="1" fill-rule="nonzero"/></g></g></g><g clip-path="url(#5f7ca13bd9)"><g clip-path="url(#925febd841)"><g clip-path="url(#38f03ad726)"><path fill="#100f0e" d="M 1084.796875 528.527344 C 1084.527344 527.546875 1083.511719 526.984375 1082.550781 527.246094 C 1081.566406 527.515625 1081.003906 528.53125 1081.269531 529.492188 C 1081.53125 530.457031 1082.550781 531.039062 1083.515625 530.773438 C 1084.496094 530.503906 1085.0625 529.511719 1084.796875 528.527344 Z M 1084.796875 528.527344 " fill-opacity="1" fill-rule="nonzero"/></g></g></g><g clip-path="url(#92d1fb3370)"><g clip-path="url(#73454b24a4)"><g clip-path="url(#6798794a23)"><path fill="#100f0e" d="M 1092.210938 555.613281 C 1091.941406 554.628906 1090.929688 554.066406 1089.964844 554.332031 C 1088.984375 554.601562 1088.421875 555.613281 1088.683594 556.578125 C 1088.949219 557.539062 1089.964844 558.121094 1090.929688 557.859375 C 1091.917969 557.605469 1092.480469 556.59375 1092.210938 555.613281 Z M 1092.210938 555.613281 " fill-opacity="1" fill-rule="nonzero"/></g></g></g><g clip-path="url(#aa0764b69a)"><g clip-path="url(#23975d6838)"><g clip-path="url(#7cebecc94b)"><path fill="#100f0e" d="M 1099.628906 582.714844 C 1099.363281 581.730469 1098.347656 581.167969 1097.382812 581.433594 C 1096.402344 581.703125 1095.839844 582.714844 1096.105469 583.679688 C 1096.367188 584.644531 1097.386719 585.222656 1098.351562 584.960938 C 1099.332031 584.691406 1099.898438 583.695312 1099.628906 582.714844 Z M 1099.628906 582.714844 " fill-opacity="1" fill-rule="nonzero"/></g></g></g><g clip-path="url(#e2d607a0ec)"><g clip-path="url(#30a85064a2)"><g clip-path="url(#26621dc67d)"><path fill="#100f0e" d="M 1107.046875 609.796875 C 1106.777344 608.816406 1105.761719 608.253906 1104.800781 608.515625 C 1103.816406 608.785156 1103.253906 609.800781 1103.519531 610.761719 C 1103.78125 611.726562 1104.800781 612.308594 1105.765625 612.042969 C 1106.75 611.792969 1107.3125 610.777344 1107.046875 609.796875 Z M 1107.046875 609.796875 " fill-opacity="1" fill-rule="nonzero"/></g></g></g><g clip-path="url(#9648b4838c)"><g clip-path="url(#180d63ddda)"><g clip-path="url(#08f896effb)"><path fill="#100f0e" d="M 1050.296875 508.859375 C 1050.027344 507.878906 1049.015625 507.316406 1048.050781 507.578125 C 1047.085938 507.84375 1046.507812 508.863281 1046.769531 509.824219 C 1047.035156 510.789062 1048.054688 511.371094 1049.015625 511.105469 C 1049.980469 510.84375 1050.558594 509.824219 1050.296875 508.859375 Z M 1050.296875 508.859375 " fill-opacity="1" fill-rule="nonzero"/></g></g></g><g clip-path="url(#f763ab7919)"><g clip-path="url(#064a03dbc1)"><g clip-path="url(#d09a62633e)"><path fill="#100f0e" d="M 1057.710938 535.945312 C 1057.441406 534.960938 1056.429688 534.398438 1055.464844 534.664062 C 1054.503906 534.925781 1053.921875 535.945312 1054.183594 536.910156 C 1054.449219 537.871094 1055.46875 538.453125 1056.429688 538.1875 C 1057.394531 537.925781 1057.980469 536.925781 1057.710938 535.945312 Z M 1057.710938 535.945312 " fill-opacity="1" fill-rule="nonzero"/></g></g></g><g clip-path="url(#2b6be71e73)"><g clip-path="url(#1a4701f3e1)"><g clip-path="url(#f65178045b)"><path fill="#100f0e" d="M 1065.125 563.027344 C 1064.859375 562.046875 1063.84375 561.484375 1062.882812 561.746094 C 1061.917969 562.011719 1061.335938 563.027344 1061.601562 563.992188 C 1061.863281 564.957031 1062.882812 565.535156 1063.847656 565.273438 C 1064.808594 565.007812 1065.394531 564.007812 1065.125 563.027344 Z M 1065.125 563.027344 " fill-opacity="1" fill-rule="nonzero"/></g></g></g><g clip-path="url(#d86c3a3df5)"><g clip-path="url(#a0bc534b75)"><g clip-path="url(#586ce699f9)"><path fill="#100f0e" d="M 1072.546875 590.128906 C 1072.277344 589.148438 1071.265625 588.585938 1070.300781 588.847656 C 1069.335938 589.113281 1068.757812 590.132812 1069.019531 591.09375 C 1069.285156 592.058594 1070.304688 592.636719 1071.265625 592.375 C 1072.230469 592.109375 1072.816406 591.109375 1072.546875 590.128906 Z M 1072.546875 590.128906 " fill-opacity="1" fill-rule="nonzero"/></g></g></g><g clip-path="url(#a7b163f40c)"><g clip-path="url(#f4d8f29e68)"><g clip-path="url(#fc3e4bea70)"><path fill="#100f0e" d="M 1079.960938 617.210938 C 1079.691406 616.230469 1078.679688 615.667969 1077.714844 615.933594 C 1076.753906 616.195312 1076.171875 617.214844 1076.433594 618.179688 C 1076.699219 619.140625 1077.71875 619.722656 1078.679688 619.457031 C 1079.644531 619.195312 1080.230469 618.195312 1079.960938 617.210938 Z M 1079.960938 617.210938 " fill-opacity="1" fill-rule="nonzero"/></g></g></g><g clip-path="url(#825133dfd4)"><g clip-path="url(#5b00c74904)"><g clip-path="url(#fd9152cdcb)"><path fill="#100f0e" d="M 1023.195312 516.28125 C 1022.925781 515.296875 1021.914062 514.734375 1020.949219 515 C 1019.984375 515.261719 1019.40625 516.28125 1019.667969 517.246094 C 1019.933594 518.207031 1020.949219 518.789062 1021.914062 518.527344 C 1022.878906 518.261719 1023.457031 517.242188 1023.195312 516.28125 Z M 1023.195312 516.28125 " fill-opacity="1" fill-rule="nonzero"/></g></g></g><g clip-path="url(#813ce91a23)"><g clip-path="url(#d97f23dfc0)"><g clip-path="url(#45410e43f3)"><path fill="#100f0e" d="M 1030.609375 543.363281 C 1030.339844 542.382812 1029.328125 541.820312 1028.363281 542.082031 C 1027.402344 542.347656 1026.820312 543.367188 1027.082031 544.328125 C 1027.347656 545.292969 1028.367188 545.871094 1029.328125 545.609375 C 1030.292969 545.34375 1030.878906 544.34375 1030.609375 543.363281 Z M 1030.609375 543.363281 " fill-opacity="1" fill-rule="nonzero"/></g></g></g><g clip-path="url(#f74f4e4627)"><g clip-path="url(#baf8858b8f)"><g clip-path="url(#77c4457692)"><path fill="#100f0e" d="M 1038.023438 570.445312 C 1037.757812 569.464844 1036.742188 568.902344 1035.777344 569.167969 C 1034.816406 569.429688 1034.234375 570.449219 1034.5 571.414062 C 1034.761719 572.375 1035.78125 572.957031 1036.746094 572.691406 C 1037.707031 572.429688 1038.292969 571.429688 1038.023438 570.445312 Z M 1038.023438 570.445312 " fill-opacity="1" fill-rule="nonzero"/></g></g></g><g clip-path="url(#8f15e8833f)"><g clip-path="url(#a9ff5ffa34)"><g clip-path="url(#0fc6ea0441)"><path fill="#100f0e" d="M 1045.445312 597.550781 C 1045.175781 596.566406 1044.164062 596.003906 1043.199219 596.269531 C 1042.234375 596.53125 1041.65625 597.550781 1041.917969 598.515625 C 1042.183594 599.476562 1043.203125 600.058594 1044.164062 599.792969 C 1045.128906 599.53125 1045.714844 598.53125 1045.445312 597.550781 Z M 1045.445312 597.550781 " fill-opacity="1" fill-rule="nonzero"/></g></g></g><g clip-path="url(#8558553a2f)"><g clip-path="url(#ba793a4afc)"><g clip-path="url(#430fa1751b)"><path fill="#100f0e" d="M 1052.859375 624.632812 C 1052.589844 623.652344 1051.578125 623.089844 1050.613281 623.351562 C 1049.652344 623.617188 1049.070312 624.632812 1049.332031 625.597656 C 1049.597656 626.5625 1050.617188 627.140625 1051.578125 626.878906 C 1052.542969 626.613281 1053.128906 625.613281 1052.859375 624.632812 Z M 1052.859375 624.632812 " fill-opacity="1" fill-rule="nonzero"/></g></g></g><g clip-path="url(#75207ed43e)"><g clip-path="url(#ef7f045116)"><g clip-path="url(#fffc401c75)"><path fill="#100f0e" d="M 996.109375 523.695312 C 995.84375 522.714844 994.828125 522.152344 993.867188 522.414062 C 992.902344 522.679688 992.320312 523.695312 992.585938 524.660156 C 992.847656 525.625 993.867188 526.203125 994.832031 525.941406 C 995.792969 525.675781 996.375 524.65625 996.109375 523.695312 Z M 996.109375 523.695312 " fill-opacity="1" fill-rule="nonzero"/></g></g></g><g clip-path="url(#10a0568913)"><g clip-path="url(#6153a1cc8e)"><g clip-path="url(#8e5a746ce7)"><path fill="#100f0e" d="M 1003.527344 550.777344 C 1003.257812 549.796875 1002.242188 549.234375 1001.28125 549.496094 C 1000.316406 549.761719 999.734375 550.78125 1000 551.742188 C 1000.265625 552.707031 1001.28125 553.289062 1002.246094 553.023438 C 1003.210938 552.761719 1003.796875 551.761719 1003.527344 550.777344 Z M 1003.527344 550.777344 " fill-opacity="1" fill-rule="nonzero"/></g></g></g><g clip-path="url(#6b107a7228)"><g clip-path="url(#2469b14830)"><g clip-path="url(#1bcab5e829)"><path fill="#100f0e" d="M 1010.941406 577.863281 C 1010.671875 576.878906 1009.660156 576.316406 1008.695312 576.582031 C 1007.730469 576.84375 1007.152344 577.863281 1007.414062 578.828125 C 1007.679688 579.789062 1008.699219 580.371094 1009.660156 580.109375 C 1010.625 579.84375 1011.210938 578.84375 1010.941406 577.863281 Z M 1010.941406 577.863281 " fill-opacity="1" fill-rule="nonzero"/></g></g></g><g clip-path="url(#4b8f43bade)"><g clip-path="url(#fb9fa58bc6)"><g clip-path="url(#4161993f2c)"><path fill="#100f0e" d="M 1018.363281 604.964844 C 1018.09375 603.980469 1017.078125 603.417969 1016.117188 603.683594 C 1015.152344 603.945312 1014.570312 604.964844 1014.835938 605.929688 C 1015.097656 606.894531 1016.117188 607.472656 1017.082031 607.210938 C 1018.042969 606.945312 1018.628906 605.945312 1018.363281 604.964844 Z M 1018.363281 604.964844 " fill-opacity="1" fill-rule="nonzero"/></g></g></g><g clip-path="url(#652439d38c)"><g clip-path="url(#c17f1ae082)"><g clip-path="url(#b943aeddcc)"><path fill="#100f0e" d="M 1025.777344 632.046875 C 1025.507812 631.066406 1024.492188 630.503906 1023.53125 630.765625 C 1022.566406 631.03125 1021.984375 632.050781 1022.25 633.011719 C 1022.515625 633.976562 1023.53125 634.558594 1024.496094 634.292969 C 1025.460938 634.03125 1026.046875 633.027344 1025.777344 632.046875 Z M 1025.777344 632.046875 " fill-opacity="1" fill-rule="nonzero"/></g></g></g><g clip-path="url(#b5ff2ebf0b)"><g clip-path="url(#28d090b17f)"><g clip-path="url(#2dfd09ebb1)"><path fill="#100f0e" d="M 174.480469 152.105469 C 173.78125 152.84375 173.824219 154 174.550781 154.6875 C 175.277344 155.375 176.449219 155.34375 177.136719 154.617188 C 177.820312 153.894531 177.789062 152.722656 177.066406 152.035156 C 176.339844 151.347656 175.167969 151.378906 174.480469 152.105469 Z M 174.480469 152.105469 " fill-opacity="1" fill-rule="nonzero"/></g></g></g><g clip-path="url(#1d98e0f541)"><g clip-path="url(#9f1698074b)"><g clip-path="url(#0adeebb026)"><path fill="#100f0e" d="M 193.800781 131.722656 C 193.097656 132.460938 193.144531 133.621094 193.867188 134.308594 C 194.59375 134.996094 195.765625 134.992188 196.464844 134.253906 C 197.167969 133.515625 197.121094 132.355469 196.398438 131.667969 C 195.671875 130.980469 194.5 130.984375 193.800781 131.722656 Z M 193.800781 131.722656 " fill-opacity="1" fill-rule="nonzero"/></g></g></g><g clip-path="url(#300452d0de)"><g clip-path="url(#7696deafa4)"><g clip-path="url(#495c2009e1)"><path fill="#100f0e" d="M 213.117188 111.34375 C 212.417969 112.082031 212.460938 113.242188 213.1875 113.929688 C 213.910156 114.617188 215.082031 114.585938 215.769531 113.859375 C 216.457031 113.136719 216.425781 111.960938 215.703125 111.273438 C 214.976562 110.589844 213.816406 110.605469 213.117188 111.34375 Z M 213.117188 111.34375 " fill-opacity="1" fill-rule="nonzero"/></g></g></g><g clip-path="url(#6373dbe27e)"><g clip-path="url(#e8bbd84978)"><g clip-path="url(#db55deb67d)"><path fill="#100f0e" d="M 232.449219 90.953125 C 231.746094 91.691406 231.792969 92.847656 232.515625 93.535156 C 233.242188 94.222656 234.414062 94.191406 235.101562 93.464844 C 235.789062 92.742188 235.757812 91.570312 235.03125 90.882812 C 234.308594 90.195312 233.148438 90.210938 232.449219 90.953125 Z M 232.449219 90.953125 " fill-opacity="1" fill-rule="nonzero"/></g></g></g><g clip-path="url(#36c43384f1)"><g clip-path="url(#e68fc79ef3)"><g clip-path="url(#72b10b5ba6)"><path fill="#100f0e" d="M 251.765625 70.570312 C 251.066406 71.308594 251.109375 72.46875 251.835938 73.15625 C 252.558594 73.84375 253.730469 73.8125 254.417969 73.085938 C 255.105469 72.363281 255.074219 71.191406 254.351562 70.503906 C 253.625 69.816406 252.464844 69.832031 251.765625 70.570312 Z M 251.765625 70.570312 " fill-opacity="1" fill-rule="nonzero"/></g></g></g><g clip-path="url(#a7eb2be787)"><g clip-path="url(#8052c2dad6)"><g clip-path="url(#75e77a2441)"><path fill="#100f0e" d="M 194.875 171.433594 C 194.175781 172.171875 194.21875 173.332031 194.945312 174.019531 C 195.683594 174.71875 196.839844 174.675781 197.527344 173.949219 C 198.214844 173.226562 198.183594 172.050781 197.460938 171.367188 C 196.71875 170.664062 195.5625 170.710938 194.875 171.433594 Z M 194.875 171.433594 " fill-opacity="1" fill-rule="nonzero"/></g></g></g><g clip-path="url(#4fe82fc917)"><g clip-path="url(#b06b5efc14)"><g clip-path="url(#5d9e951660)"><path fill="#100f0e" d="M 214.191406 151.054688 C 213.492188 151.792969 213.535156 152.953125 214.261719 153.640625 C 215 154.339844 216.160156 154.296875 216.847656 153.570312 C 217.535156 152.84375 217.5 151.671875 216.777344 150.984375 C 216.039062 150.285156 214.894531 150.316406 214.191406 151.054688 Z M 214.191406 151.054688 " fill-opacity="1" fill-rule="nonzero"/></g></g></g><g clip-path="url(#a23e94dc0b)"><g clip-path="url(#4194e7e382)"><g clip-path="url(#85e8bfd007)"><path fill="#100f0e" d="M 233.511719 130.675781 C 232.808594 131.414062 232.855469 132.574219 233.578125 133.257812 C 234.316406 133.960938 235.476562 133.914062 236.164062 133.191406 C 236.851562 132.464844 236.820312 131.292969 236.09375 130.605469 C 235.371094 129.890625 234.210938 129.9375 233.511719 130.675781 Z M 233.511719 130.675781 " fill-opacity="1" fill-rule="nonzero"/></g></g></g><g clip-path="url(#dd48b34f29)"><g clip-path="url(#4495e53037)"><g clip-path="url(#909d6c5c82)"><path fill="#100f0e" d="M 252.839844 110.28125 C 252.140625 111.019531 252.183594 112.179688 252.910156 112.867188 C 253.648438 113.566406 254.808594 113.523438 255.496094 112.796875 C 256.183594 112.074219 256.152344 110.898438 255.425781 110.214844 C 254.6875 109.511719 253.542969 109.542969 252.839844 110.28125 Z M 252.839844 110.28125 " fill-opacity="1" fill-rule="nonzero"/></g></g></g><g clip-path="url(#a47f91e489)"><g clip-path="url(#9cad01fb10)"><g clip-path="url(#446e439154)"><path fill="#100f0e" d="M 272.160156 89.902344 C 271.460938 90.640625 271.503906 91.800781 272.226562 92.488281 C 272.96875 93.1875 274.125 93.140625 274.8125 92.417969 C 275.5 91.691406 275.46875 90.519531 274.742188 89.832031 C 274.019531 89.121094 272.859375 89.164062 272.160156 89.902344 Z M 272.160156 89.902344 " fill-opacity="1" fill-rule="nonzero"/></g></g></g><g clip-path="url(#4f2eeda8ed)"><g clip-path="url(#8e713b349e)"><g clip-path="url(#bcaff1f328)"><path fill="#100f0e" d="M 215.253906 190.753906 C 214.554688 191.492188 214.597656 192.648438 215.324219 193.335938 C 216.046875 194.023438 217.222656 193.992188 217.90625 193.269531 C 218.59375 192.542969 218.5625 191.371094 217.839844 190.683594 C 217.113281 189.996094 215.941406 190.027344 215.253906 190.753906 Z M 215.253906 190.753906 " fill-opacity="1" fill-rule="nonzero"/></g></g></g><g clip-path="url(#d74a33b139)"><g clip-path="url(#4f7cb36046)"><g clip-path="url(#a62223c6ef)"><path fill="#100f0e" d="M 234.574219 170.371094 C 233.871094 171.113281 233.917969 172.269531 234.640625 172.957031 C 235.367188 173.644531 236.539062 173.613281 237.226562 172.886719 C 237.914062 172.164062 237.882812 170.992188 237.15625 170.304688 C 236.433594 169.617188 235.273438 169.632812 234.574219 170.371094 Z M 234.574219 170.371094 " fill-opacity="1" fill-rule="nonzero"/></g></g></g><g clip-path="url(#0ffe478f8e)"><g clip-path="url(#287d25f293)"><g clip-path="url(#bc2456c38b)"><path fill="#100f0e" d="M 253.890625 149.992188 C 253.191406 150.730469 253.234375 151.890625 253.960938 152.578125 C 254.683594 153.265625 255.855469 153.234375 256.542969 152.507812 C 257.230469 151.785156 257.199219 150.609375 256.472656 149.925781 C 255.75 149.238281 254.589844 149.253906 253.890625 149.992188 Z M 253.890625 149.992188 " fill-opacity="1" fill-rule="nonzero"/></g></g></g><g clip-path="url(#0feb4e7879)"><g clip-path="url(#1f85c34063)"><g clip-path="url(#09cd39b027)"><path fill="#100f0e" d="M 273.222656 129.601562 C 272.519531 130.339844 272.566406 131.496094 273.289062 132.183594 C 274.015625 132.871094 275.1875 132.839844 275.875 132.113281 C 276.5625 131.390625 276.53125 130.21875 275.804688 129.53125 C 275.082031 128.84375 273.921875 128.859375 273.222656 129.601562 Z M 273.222656 129.601562 " fill-opacity="1" fill-rule="nonzero"/></g></g></g><g clip-path="url(#b098a80f4b)"><g clip-path="url(#e4268e0428)"><g clip-path="url(#e6d20e8ee0)"><path fill="#100f0e" d="M 292.539062 109.21875 C 291.839844 109.957031 291.882812 111.117188 292.609375 111.804688 C 293.332031 112.492188 294.503906 112.460938 295.191406 111.734375 C 295.878906 111.011719 295.847656 109.839844 295.125 109.152344 C 294.398438 108.464844 293.238281 108.480469 292.539062 109.21875 Z M 292.539062 109.21875 " fill-opacity="1" fill-rule="nonzero"/></g></g></g><g clip-path="url(#b3da46344c)"><g clip-path="url(#91ee084e9f)"><g clip-path="url(#149d5f7dee)"><path fill="#100f0e" d="M 235.648438 210.082031 C 234.949219 210.820312 234.992188 211.980469 235.71875 212.667969 C 236.441406 213.355469 237.613281 213.324219 238.300781 212.597656 C 238.988281 211.875 238.957031 210.703125 238.230469 210.015625 C 237.507812 209.328125 236.335938 209.359375 235.648438 210.082031 Z M 235.648438 210.082031 " fill-opacity="1" fill-rule="nonzero"/></g></g></g><g clip-path="url(#ab843603ce)"><g clip-path="url(#c30a4cc99d)"><g clip-path="url(#d279f5b068)"><path fill="#100f0e" d="M 254.964844 189.703125 C 254.265625 190.441406 254.308594 191.601562 255.035156 192.289062 C 255.757812 192.976562 256.933594 192.945312 257.617188 192.21875 C 258.304688 191.492188 258.273438 190.320312 257.550781 189.632812 C 256.824219 188.949219 255.664062 188.964844 254.964844 189.703125 Z M 254.964844 189.703125 " fill-opacity="1" fill-rule="nonzero"/></g></g></g><g clip-path="url(#5dba195691)"><g clip-path="url(#0f6edbd755)"><g clip-path="url(#45a8846c1f)"><path fill="#100f0e" d="M 274.285156 169.324219 C 273.582031 170.0625 273.628906 171.222656 274.351562 171.910156 C 275.078125 172.59375 276.25 172.5625 276.9375 171.839844 C 277.625 171.113281 277.59375 169.941406 276.867188 169.253906 C 276.144531 168.566406 274.984375 168.585938 274.285156 169.324219 Z M 274.285156 169.324219 " fill-opacity="1" fill-rule="nonzero"/></g></g></g><g clip-path="url(#95057ca7b0)"><g clip-path="url(#72886cb041)"><g clip-path="url(#38808f890c)"><path fill="#100f0e" d="M 293.613281 148.929688 C 292.914062 149.667969 292.957031 150.828125 293.683594 151.515625 C 294.410156 152.203125 295.582031 152.171875 296.269531 151.445312 C 296.953125 150.722656 296.921875 149.546875 296.199219 148.863281 C 295.472656 148.175781 294.3125 148.191406 293.613281 148.929688 Z M 293.613281 148.929688 " fill-opacity="1" fill-rule="nonzero"/></g></g></g><g clip-path="url(#41de38da3d)"><g clip-path="url(#188dbede57)"><g clip-path="url(#71d8ca392c)"><path fill="#100f0e" d="M 312.933594 128.550781 C 312.230469 129.289062 312.277344 130.449219 313 131.136719 C 313.726562 131.824219 314.898438 131.792969 315.585938 131.066406 C 316.273438 130.339844 316.242188 129.167969 315.515625 128.480469 C 314.792969 127.792969 313.632812 127.8125 312.933594 128.550781 Z M 312.933594 128.550781 " fill-opacity="1" fill-rule="nonzero"/></g></g></g><g clip-path="url(#f76dd9dfae)"><g clip-path="url(#78874d3af5)"><g clip-path="url(#46aadbfec9)"><path fill="#100f0e" d="M 256.027344 229.402344 C 255.328125 230.140625 255.371094 231.296875 256.097656 231.984375 C 256.820312 232.671875 257.992188 232.640625 258.679688 231.917969 C 259.367188 231.191406 259.335938 230.019531 258.613281 229.332031 C 257.886719 228.644531 256.714844 228.675781 256.027344 229.402344 Z M 256.027344 229.402344 " fill-opacity="1" fill-rule="nonzero"/></g></g></g><g clip-path="url(#a4cff54479)"><g clip-path="url(#3e0196c8e2)"><g clip-path="url(#707517131d)"><path fill="#100f0e" d="M 275.34375 209.019531 C 274.644531 209.761719 274.6875 210.917969 275.414062 211.605469 C 276.140625 212.292969 277.3125 212.261719 278 211.535156 C 278.6875 210.8125 278.65625 209.640625 277.929688 208.953125 C 277.203125 208.265625 276.046875 208.28125 275.34375 209.019531 Z M 275.34375 209.019531 " fill-opacity="1" fill-rule="nonzero"/></g></g></g><g clip-path="url(#f62408e341)"><g clip-path="url(#1097b20d04)"><g clip-path="url(#1ffc2e7c86)"><path fill="#100f0e" d="M 294.664062 188.640625 C 293.964844 189.378906 294.007812 190.539062 294.730469 191.226562 C 295.457031 191.914062 296.628906 191.882812 297.316406 191.15625 C 298.003906 190.433594 297.972656 189.261719 297.246094 188.574219 C 296.523438 187.886719 295.363281 187.902344 294.664062 188.640625 Z M 294.664062 188.640625 " fill-opacity="1" fill-rule="nonzero"/></g></g></g><g clip-path="url(#6abaf2d7d4)"><g clip-path="url(#3bc5502e15)"><g clip-path="url(#6ce8119ae1)"><path fill="#100f0e" d="M 313.992188 168.25 C 313.292969 168.988281 313.339844 170.144531 314.0625 170.832031 C 314.789062 171.519531 315.960938 171.488281 316.648438 170.765625 C 317.335938 170.039062 317.304688 168.867188 316.578125 168.179688 C 315.851562 167.492188 314.695312 167.511719 313.992188 168.25 Z M 313.992188 168.25 " fill-opacity="1" fill-rule="nonzero"/></g></g></g><g clip-path="url(#8ab299d71c)"><g clip-path="url(#4d8c3d4862)"><g clip-path="url(#4542afb102)"><path fill="#100f0e" d="M 333.3125 147.867188 C 332.613281 148.609375 332.65625 149.765625 333.378906 150.453125 C 334.105469 151.140625 335.277344 151.109375 335.964844 150.382812 C 336.652344 149.660156 336.621094 148.488281 335.894531 147.800781 C 335.171875 147.113281 334.011719 147.128906 333.3125 147.867188 Z M 333.3125 147.867188 " fill-opacity="1" fill-rule="nonzero"/></g></g></g><g fill="#474747" fill-opacity="1"><g transform="translate(593.52564, 139.771822)"><g><path d="M 24.828125 -46.828125 C 28.484375 -46.828125 31.757812 -46.109375 34.65625 -44.671875 C 37.550781 -43.234375 39.894531 -41.242188 41.6875 -38.703125 C 43.476562 -36.160156 44.546875 -33.226562 44.890625 -29.90625 L 31.90625 -29.90625 C 31.675781 -31.332031 31.238281 -32.566406 30.59375 -33.609375 C 29.957031 -34.648438 29.125 -35.453125 28.09375 -36.015625 C 27.0625 -36.578125 25.832031 -36.859375 24.40625 -36.859375 C 22.851562 -36.859375 21.46875 -36.453125 20.25 -35.640625 C 19.039062 -34.835938 18.085938 -33.460938 17.390625 -31.515625 C 16.703125 -29.566406 16.359375 -26.898438 16.359375 -23.515625 C 16.359375 -18.378906 17.113281 -14.726562 18.625 -12.5625 C 20.132812 -10.40625 22.0625 -9.328125 24.40625 -9.328125 C 25.832031 -9.328125 27.0625 -9.6875 28.09375 -10.40625 C 29.125 -11.132812 29.957031 -12.097656 30.59375 -13.296875 C 31.238281 -14.503906 31.675781 -15.820312 31.90625 -17.25 L 44.890625 -17.25 C 44.566406 -14.863281 44.023438 -12.59375 43.265625 -10.4375 C 42.515625 -8.289062 41.398438 -6.378906 39.921875 -4.703125 C 38.441406 -3.035156 36.472656 -1.726562 34.015625 -0.78125 C 31.566406 0.164062 28.503906 0.640625 24.828125 0.640625 C 20.367188 0.640625 16.484375 -0.410156 13.171875 -2.515625 C 9.859375 -4.628906 7.285156 -7.515625 5.453125 -11.171875 C 3.628906 -14.835938 2.71875 -19.015625 2.71875 -23.703125 C 2.71875 -28.390625 3.617188 -32.460938 5.421875 -35.921875 C 7.234375 -39.378906 9.796875 -42.0625 13.109375 -43.96875 C 16.421875 -45.875 20.328125 -46.828125 24.828125 -46.828125 Z M 24.828125 -46.828125 "/></g></g></g><g fill="#474747" fill-opacity="1"><g transform="translate(644.318429, 139.771822)"><g><path d="M 25.140625 0.640625 C 20.554688 0.640625 16.585938 -0.332031 13.234375 -2.28125 C 9.878906 -4.226562 7.285156 -6.96875 5.453125 -10.5 C 3.628906 -14.039062 2.71875 -18.207031 2.71875 -23 C 2.71875 -27.8125 3.648438 -32 5.515625 -35.5625 C 7.378906 -39.132812 9.992188 -41.90625 13.359375 -43.875 C 16.722656 -45.84375 20.648438 -46.828125 25.140625 -46.828125 C 29.609375 -46.828125 33.515625 -45.84375 36.859375 -43.875 C 40.203125 -41.90625 42.800781 -39.132812 44.65625 -35.5625 C 46.507812 -32 47.4375 -27.8125 47.4375 -23 C 47.4375 -18.226562 46.523438 -14.066406 44.703125 -10.515625 C 42.878906 -6.972656 40.296875 -4.226562 36.953125 -2.28125 C 33.609375 -0.332031 29.671875 0.640625 25.140625 0.640625 Z M 25.140625 -9.328125 C 26.847656 -9.328125 28.363281 -9.757812 29.6875 -10.625 C 31.019531 -11.488281 32.0625 -12.90625 32.8125 -14.875 C 33.570312 -16.84375 33.953125 -19.488281 33.953125 -22.8125 C 33.953125 -26.238281 33.570312 -28.976562 32.8125 -31.03125 C 32.0625 -33.09375 31.019531 -34.578125 29.6875 -35.484375 C 28.363281 -36.398438 26.847656 -36.859375 25.140625 -36.859375 C 23.429688 -36.859375 21.910156 -36.398438 20.578125 -35.484375 C 19.253906 -34.578125 18.207031 -33.09375 17.4375 -31.03125 C 16.675781 -28.976562 16.296875 -26.238281 16.296875 -22.8125 C 16.296875 -19.488281 16.675781 -16.84375 17.4375 -14.875 C 18.207031 -12.90625 19.253906 -11.488281 20.578125 -10.625 C 21.910156 -9.757812 23.429688 -9.328125 25.140625 -9.328125 Z M 25.140625 -9.328125 "/></g></g></g><g fill="#474747" fill-opacity="1"><g transform="translate(697.666805, 139.771822)"><g><path d="M 4.3125 -46.1875 C 4.65625 -46.1875 5.503906 -46.1875 6.859375 -46.1875 C 8.222656 -46.1875 9.804688 -46.191406 11.609375 -46.203125 C 13.410156 -46.210938 15.160156 -46.210938 16.859375 -46.203125 C 18.566406 -46.191406 19.921875 -46.164062 20.921875 -46.125 C 26.484375 -45.9375 31.023438 -44.851562 34.546875 -42.875 C 38.066406 -40.894531 40.65625 -38.222656 42.3125 -34.859375 C 43.976562 -31.492188 44.8125 -27.625 44.8125 -23.25 C 44.8125 -18.757812 43.945312 -14.757812 42.21875 -11.25 C 40.5 -7.75 37.867188 -5 34.328125 -3 C 30.796875 -1 26.304688 0 20.859375 0 L 4.3125 0 Z M 16.734375 -36.421875 L 16.734375 -9.78125 L 21.25 -9.78125 C 22.820312 -9.78125 24.421875 -10.21875 26.046875 -11.09375 C 27.679688 -11.976562 29.054688 -13.421875 30.171875 -15.421875 C 31.285156 -17.429688 31.84375 -20.109375 31.84375 -23.453125 C 31.84375 -26.285156 31.398438 -28.664062 30.515625 -30.59375 C 29.640625 -32.519531 28.398438 -33.972656 26.796875 -34.953125 C 25.203125 -35.929688 23.351562 -36.421875 21.25 -36.421875 Z M 16.734375 -36.421875 "/></g></g></g><g fill="#474747" fill-opacity="1"><g transform="translate(748.395704, 139.771822)"><g><path d="M 4.3125 0 L 4.3125 -46.1875 L 38.4375 -46.1875 L 38.359375 -35.90625 L 16.828125 -35.90625 L 16.828125 -28.234375 L 34.859375 -28.234375 L 34.859375 -18.203125 L 16.734375 -18.203125 L 16.734375 -10.34375 L 38.5 -10.34375 L 38.5 0 Z M 4.3125 0 "/></g></g></g><g fill="#474747" fill-opacity="1"><g transform="translate(792.959255, 139.771822)"><g><path d="M 24.828125 -46.828125 C 28.484375 -46.828125 31.757812 -46.109375 34.65625 -44.671875 C 37.550781 -43.234375 39.894531 -41.242188 41.6875 -38.703125 C 43.476562 -36.160156 44.546875 -33.226562 44.890625 -29.90625 L 31.90625 -29.90625 C 31.675781 -31.332031 31.238281 -32.566406 30.59375 -33.609375 C 29.957031 -34.648438 29.125 -35.453125 28.09375 -36.015625 C 27.0625 -36.578125 25.832031 -36.859375 24.40625 -36.859375 C 22.851562 -36.859375 21.46875 -36.453125 20.25 -35.640625 C 19.039062 -34.835938 18.085938 -33.460938 17.390625 -31.515625 C 16.703125 -29.566406 16.359375 -26.898438 16.359375 -23.515625 C 16.359375 -18.378906 17.113281 -14.726562 18.625 -12.5625 C 20.132812 -10.40625 22.0625 -9.328125 24.40625 -9.328125 C 25.832031 -9.328125 27.0625 -9.6875 28.09375 -10.40625 C 29.125 -11.132812 29.957031 -12.097656 30.59375 -13.296875 C 31.238281 -14.503906 31.675781 -15.820312 31.90625 -17.25 L 44.890625 -17.25 C 44.566406 -14.863281 44.023438 -12.59375 43.265625 -10.4375 C 42.515625 -8.289062 41.398438 -6.378906 39.921875 -4.703125 C 38.441406 -3.035156 36.472656 -1.726562 34.015625 -0.78125 C 31.566406 0.164062 28.503906 0.640625 24.828125 0.640625 C 20.367188 0.640625 16.484375 -0.410156 13.171875 -2.515625 C 9.859375 -4.628906 7.285156 -7.515625 5.453125 -11.171875 C 3.628906 -14.835938 2.71875 -19.015625 2.71875 -23.703125 C 2.71875 -28.390625 3.617188 -32.460938 5.421875 -35.921875 C 7.234375 -39.378906 9.796875 -42.0625 13.109375 -43.96875 C 16.421875 -45.875 20.328125 -46.828125 24.828125 -46.828125 Z M 24.828125 -46.828125 "/></g></g></g><g fill="#474747" fill-opacity="1"><g transform="translate(843.752047, 139.771822)"><g><path d="M 4.3125 0 L 4.3125 -46.1875 L 22.78125 -46.1875 L 30.25 -18.015625 L 37.796875 -46.1875 L 56.1875 -46.1875 L 56.1875 0 L 43.734375 0 L 43.734375 -33.484375 L 34.71875 0 L 25.78125 0 L 16.734375 -33.484375 L 16.734375 0 Z M 4.3125 0 "/></g></g></g><g fill="#474747" fill-opacity="1"><g transform="translate(907.450535, 139.771822)"><g><path d="M 0.953125 0 L 17.3125 -46.1875 L 30.03125 -46.1875 L 46.390625 0 L 34.125 0 L 31.046875 -8.9375 L 16.484375 -8.9375 L 13.359375 0 Z M 19.109375 -19.546875 L 28.234375 -19.546875 L 23.703125 -34.3125 Z M 19.109375 -19.546875 "/></g></g></g><g fill="#474747" fill-opacity="1"><g transform="translate(957.987778, 139.771822)"><g><path d="M 46.609375 0 L 33.25 0 L 22.96875 -19.484375 L 17.21875 -12.078125 L 17.21875 0 L 4.3125 0 L 4.3125 -46.1875 L 17.21875 -46.1875 L 17.21875 -27.53125 L 30.578125 -46.1875 L 44.53125 -46.1875 L 31.84375 -28.5625 Z M 46.609375 0 "/></g></g></g><g fill="#474747" fill-opacity="1"><g transform="translate(1009.00419, 139.771822)"><g><path d="M 4.3125 0 L 4.3125 -46.1875 L 38.4375 -46.1875 L 38.359375 -35.90625 L 16.828125 -35.90625 L 16.828125 -28.234375 L 34.859375 -28.234375 L 34.859375 -18.203125 L 16.734375 -18.203125 L 16.734375 -10.34375 L 38.5 -10.34375 L 38.5 0 Z M 4.3125 0 "/></g></g></g><g fill="#474747" fill-opacity="1"><g transform="translate(1053.567741, 139.771822)"><g><path d="M 42.703125 0 L 29.96875 0 L 23.25 -15.90625 L 16.734375 -15.90625 L 16.734375 0 L 4.3125 0 L 4.3125 -46.1875 L 25.265625 -46.1875 C 29.273438 -46.1875 32.5 -45.523438 34.9375 -44.203125 C 37.375 -42.890625 39.144531 -41.109375 40.25 -38.859375 C 41.351562 -36.609375 41.90625 -34.09375 41.90625 -31.3125 C 41.90625 -28.945312 41.59375 -26.925781 40.96875 -25.25 C 40.34375 -23.582031 39.476562 -22.15625 38.375 -20.96875 C 37.28125 -19.789062 36.019531 -18.765625 34.59375 -17.890625 Z M 23.859375 -25.171875 C 25.460938 -25.171875 26.789062 -25.796875 27.84375 -27.046875 C 28.894531 -28.304688 29.421875 -29.679688 29.421875 -31.171875 C 29.421875 -32.773438 28.84375 -34.144531 27.6875 -35.28125 C 26.539062 -36.425781 25.265625 -37 23.859375 -37 L 16.734375 -37 L 16.734375 -25.171875 Z M 23.859375 -25.171875 "/></g></g></g><g clip-path="url(#c2888e34bd)"><path fill="#2a7ce0" d="M 1312.519531 339.335938 C 1310.433594 339.335938 1308.765625 341 1308.765625 343.082031 C 1308.765625 343.152344 1308.765625 343.21875 1308.765625 343.289062 L 1199.671875 343.289062 L 1157.492188 388.722656 L 1067.578125 388.722656 C 1067.230469 386.988281 1065.769531 385.671875 1063.894531 385.671875 C 1061.808594 385.671875 1060.140625 387.335938 1060.140625 389.417969 C 1060.140625 391.496094 1061.808594 393.160156 1063.894531 393.160156 C 1065.769531 393.160156 1067.296875 391.773438 1067.578125 389.972656 L 1158.050781 389.972656 L 1200.226562 344.539062 L 1309.113281 344.539062 C 1309.671875 345.855469 1310.992188 346.828125 1312.519531 346.828125 C 1314.605469 346.828125 1316.273438 345.164062 1316.273438 343.082031 C 1316.273438 341 1314.605469 339.335938 1312.519531 339.335938 Z M 1312.519531 339.335938 " fill-opacity="1" fill-rule="nonzero"/></g><g clip-path="url(#76c5919d36)"><path fill="#2a7ce0" d="M 187.824219 366.316406 C 185.738281 366.316406 184.070312 367.980469 184.070312 370.0625 C 184.070312 370.132812 184.070312 370.199219 184.070312 370.269531 L 74.976562 370.269531 L 32.796875 415.703125 L -57.121094 415.703125 C -57.46875 413.96875 -58.925781 412.652344 -60.800781 412.652344 C -62.886719 412.652344 -64.554688 414.316406 -64.554688 416.398438 C -64.554688 418.476562 -62.886719 420.140625 -60.800781 420.140625 C -58.925781 420.140625 -57.398438 418.753906 -57.121094 416.953125 L 33.351562 416.953125 L 75.53125 371.519531 L 184.417969 371.519531 C 184.972656 372.835938 186.292969 373.808594 187.824219 373.808594 C 189.90625 373.808594 191.574219 372.144531 191.574219 370.0625 C 191.574219 367.980469 189.90625 366.316406 187.824219 366.316406 Z M 187.824219 366.316406 " fill-opacity="1" fill-rule="nonzero"/></g></svg>