<svg xmlns="http://www.w3.org/2000/svg" viewBox="0 0 24 24"><path fill="#80CBE7" d="M12 17c-5.466 0-11 1.202-11 3.5S6.534 24 12 24s11-1.202 11-3.5S17.466 17 12 17z"/><path fill="#FFF" d="M12 17.25c4.826 0 9.717.916 10.88 2.678C22.037 18.005 16.99 17 12 17S1.962 18.005 1.12 19.928C2.284 18.166 7.175 17.25 12 17.25z" opacity=".2"/><path d="M12 23.75c-4.826 0-9.717-.916-10.88-2.678C1.963 22.995 7.01 24 12 24s10.038-1.005 10.88-2.928C21.716 22.834 16.825 23.75 12 23.75z" opacity=".1"/><linearGradient id="a" x1="15.268" x2="19.722" y1="18.203" y2="22.658" gradientUnits="userSpaceOnUse"><stop offset="0" stop-opacity=".1"/><stop offset="1" stop-opacity="0"/></linearGradient><path fill="url(#a)" d="M15.685 17.191c-1.666 2.005-3.21 3.38-3.35 3.507L12 21l2.885 2.885C19.255 23.537 23 22.39 23 20.5c0-1.773-3.298-2.89-7.315-3.309z"/><path fill="#039BE5" d="M20 8c0 6.5-8 13-8 13S4 14.5 4 8a8 8 0 0 1 16 0z"/><path d="M12 20.75s-6.143-4.94-7.721-10.574c.076.313.167.624.27.932C6.341 16.44 12 21 12 21s5.842-4.714 7.535-10.154c.07-.225.133-.45.188-.678C18.145 15.802 12 20.75 12 20.75z" opacity=".1"/><path fill="#FFF" d="M12 .25c3.834 0 7.017 2.583 7.837 6.168C19.14 2.712 15.91 0 12 0S4.841 2.777 4.144 6.484A8.038 8.038 0 0 1 12 .25z" opacity=".2"/><circle cx="12" cy="8" r="4" fill="#0277BD"/><linearGradient id="b" x1="2.838" x2="24.034" y1="8.713" y2="18.596" gradientUnits="userSpaceOnUse"><stop offset="0" stop-color="#FFF" stop-opacity=".2"/><stop offset="1" stop-color="#FFF" stop-opacity="0"/></linearGradient><path fill="url(#b)" d="M15.777 17.199C17.849 14.735 20 11.372 20 8A8 8 0 0 0 4 8c0 3.372 2.151 6.735 4.223 9.199C4.248 17.626 1 18.74 1 20.5 1 22.798 6.534 24 12 24s11-1.202 11-3.5c0-1.76-3.248-2.874-7.223-3.301z"/></svg>